<svg xmlns="http://www.w3.org/2000/svg" width="32" height="32" fill="none" xmlns:v="https://vecta.io/nano"><path d="M22.25 4C19.669 4 17.409 5.11 16 6.986 14.591 5.11 12.331 4 9.75 4A7.76 7.76 0 0 0 2 11.75c0 8.75 12.974 15.833 13.526 16.125a1 1 0 0 0 .948 0C17.026 27.583 30 20.5 30 11.75A7.76 7.76 0 0 0 22.25 4zM16 25.85c-2.283-1.33-12-7.389-12-14.1.002-1.524.608-2.986 1.686-4.064S8.226 6.002 9.75 6c2.431 0 4.473 1.295 5.325 3.375a1 1 0 0 0 .925.62 1 1 0 0 0 .925-.62C17.778 7.291 19.819 6 22.25 6A5.76 5.76 0 0 1 28 11.75c0 6.701-9.72 12.769-12 14.1z" fill="#e07b67"/></svg>