<svg xmlns="http://www.w3.org/2000/svg" width="32" height="32" fill="none" xmlns:v="https://vecta.io/nano"><path d="M28.708 27.293l-6.259-6.257c1.814-2.178 2.719-4.971 2.526-7.799s-1.469-5.472-3.562-7.383-4.843-2.942-7.676-2.877-5.533 1.219-7.538 3.223-3.159 4.704-3.223 7.538.966 5.583 2.877 7.676 4.556 3.369 7.383 3.562 5.621-.712 7.799-2.526l6.258 6.259a1 1 0 0 0 .707.293 1 1 0 0 0 .707-.293 1 1 0 0 0 .293-.707 1 1 0 0 0-.293-.707zM5 14a9 9 0 0 1 5.556-8.315 9 9 0 0 1 9.808 1.951 9 9 0 0 1 1.951 9.808A9 9 0 0 1 14 23a9.01 9.01 0 0 1-9-9z" fill="#e07b67"/></svg>